<?xml version="1.0" standalone="no"?>
<!DOCTYPE svg PUBLIC "-//W3C//DTD SVG 20010904//EN"
 "http://www.w3.org/TR/2001/REC-SVG-20010904/DTD/svg10.dtd">
<svg version="1.0" xmlns="http://www.w3.org/2000/svg"
 width="1200.000000pt" height="800.000000pt" viewBox="0 0 1200.000000 800.000000"
 preserveAspectRatio="xMidYMid meet">
<metadata>
Created by potrace 1.16, written by Peter Selinger 2001-2019
</metadata>
<g transform="translate(0.000000,800.000000) scale(0.100000,-0.100000)"
fill="#000000" stroke="none">
<path d="M0 4000 l0 -4000 1234 0 1234 0 -6 45 c-4 41 -3 45 17 45 14 0 21 -6
21 -20 0 -10 5 -31 12 -45 9 -20 18 -25 46 -25 29 0 33 3 27 18 -13 31 -18 62
-9 62 5 0 19 -18 32 -40 22 -38 25 -40 72 -40 28 0 50 3 50 6 0 4 -9 22 -21
40 -11 19 -18 34 -14 34 3 0 -6 16 -21 35 -14 19 -33 35 -41 35 -19 0 -41 57
-44 113 -3 52 -2 54 26 59 13 2 21 -4 23 -17 3 -11 12 -25 22 -32 10 -7 21
-28 24 -46 4 -20 15 -39 29 -46 22 -12 47 -71 47 -113 0 -39 12 -68 27 -68 24
0 10 159 -19 210 -15 27 -19 43 -12 48 5 4 16 21 23 38 12 31 6 55 -31 128 -6
11 -9 40 -8 65 6 96 4 122 -11 132 -11 8 -11 12 -1 16 6 2 10 9 6 14 -11 19
78 32 115 17 14 -6 29 -11 33 -10 4 1 5 -4 2 -11 -4 -10 3 -12 26 -9 18 2 30
0 30 -7 0 -7 20 -11 49 -11 l49 0 -4 -52 c-3 -48 -2 -51 11 -34 15 20 19 36
16 67 -1 9 9 23 23 32 13 9 26 26 28 38 2 18 15 26 64 39 53 15 66 16 100 4
21 -8 55 -14 75 -14 50 0 88 -21 134 -75 34 -41 40 -44 47 -28 6 13 7 11 3 -8
-4 -21 6 -35 53 -81 66 -65 120 -95 186 -103 42 -5 139 -58 157 -86 13 -21
121 -49 188 -49 69 0 69 0 92 -36 22 -36 22 -37 4 -50 -11 -8 -34 -20 -52 -26
-44 -16 -37 -32 15 -36 47 -4 51 -10 22 -35 -25 -21 -25 -29 -1 -51 28 -25 93
-13 136 25 18 16 44 29 58 29 18 0 34 11 53 36 15 20 39 38 55 41 34 6 107 83
115 121 3 15 10 37 15 50 14 34 11 98 -6 139 -8 19 -15 38 -15 40 0 14 62 -36
117 -94 l62 -65 142 -19 c145 -19 175 -30 163 -58 -3 -9 -5 -52 -5 -96 1 -44
-5 -104 -12 -132 l-14 -53 2383 0 c2112 0 2384 2 2384 15 0 16 19 19 69 9 17
-4 28 -10 25 -15 -2 -4 463 -9 1036 -9 l1040 0 0 99 0 100 -91 -4 c-68 -3 -98
0 -114 11 -12 8 -25 11 -28 7 -4 -3 -7 -1 -7 5 0 16 49 39 90 44 24 2 34 -1
33 -9 -4 -20 15 -15 26 6 6 11 26 21 51 25 l40 6 0 1371 c0 910 -3 1368 -10
1364 -6 -3 -10 -14 -10 -24 0 -9 -11 -27 -25 -39 -14 -12 -25 -26 -25 -31 0
-10 -72 -24 -123 -22 -25 0 -49 9 -67 24 -32 28 -88 52 -97 43 -4 -3 3 -16 15
-29 12 -13 22 -36 22 -50 0 -24 -2 -26 -19 -17 -11 5 -33 10 -49 10 -17 0 -47
13 -73 33 -24 18 -56 39 -71 46 -29 15 -61 56 -61 77 0 8 -28 15 -77 19 -67 6
-83 4 -118 -14 -68 -35 -84 -84 -86 -267 l-1 -106 -60 -22 c-93 -34 -145 -92
-145 -162 0 -14 -11 -41 -25 -62 -13 -20 -25 -51 -25 -67 0 -17 -3 -54 -6 -83
-8 -68 -26 -64 -37 9 -5 30 -13 84 -19 122 -7 46 -14 67 -24 67 -9 0 -14 11
-14 33 0 17 -4 38 -9 45 -4 7 -6 -57 -3 -143 4 -128 2 -155 -9 -155 -19 0 -40
15 -38 26 3 20 -1 437 -5 433 -3 -2 -10 -49 -16 -104 -6 -55 -17 -122 -24
-150 -13 -47 -14 -48 -18 -20 -3 17 -6 -8 -8 -55 -2 -47 -3 -92 -4 -100 -1
-16 -35 -25 -52 -13 -7 6 -7 57 2 173 7 91 13 217 12 280 l0 115 -19 -60 c-12
-37 -25 -129 -34 -240 -21 -249 -24 -265 -41 -265 -10 0 -12 5 -8 12 6 10 3 9
-8 0 -15 -12 -17 -9 -20 25 l-4 38 -8 -43 c-7 -32 -16 -46 -36 -57 -29 -15
-40 -33 -40 -69 0 -12 -12 -55 -26 -96 -14 -41 -30 -95 -35 -119 -5 -25 -16
-55 -24 -67 -8 -13 -15 -32 -15 -44 0 -11 -3 -20 -7 -21 -5 -1 -51 -2 -103 -4
-52 -1 -154 -6 -226 -10 -83 -5 -134 -4 -137 2 -4 6 22 13 64 16 39 3 74 8 77
11 15 15 41 525 31 606 l-5 45 -6 -40 c-4 -22 -9 -60 -13 -85 -3 -25 -11 -65
-17 -90 -7 -25 -12 -54 -13 -65 -5 -86 -6 -90 -14 -75 -5 8 -11 76 -15 150 -8
166 -17 259 -25 265 -4 2 -7 -4 -8 -13 0 -9 -3 -33 -6 -52 -3 -19 -7 -57 -8
-85 l-2 -50 -7 55 c-5 30 -8 101 -9 158 -1 101 -2 103 -23 100 -20 -3 -23 3
-31 52 -4 30 -5 80 -1 110 4 30 7 58 6 63 -1 4 47 7 108 7 67 0 110 4 110 10
0 6 -5 10 -11 10 -8 0 -8 5 1 15 7 8 9 15 4 15 -4 0 1 7 12 15 15 12 16 16 6
23 -11 8 -11 10 2 15 12 5 16 20 16 62 0 48 -2 55 -20 55 -11 0 -20 5 -20 10
0 6 7 10 15 10 10 0 15 9 14 28 0 15 -3 21 -6 15 -7 -19 -53 -16 -53 2 0 8 5
15 10 15 6 0 10 7 8 16 -2 10 3 19 11 22 9 3 11 0 6 -8 -10 -15 14 -31 37 -24
10 3 19 -2 22 -14 4 -11 15 -27 26 -37 19 -18 20 -17 21 8 1 15 2 33 3 40 1 6
-7 11 -17 10 -10 0 -16 2 -13 5 12 11 -16 30 -40 26 -13 -2 -24 0 -24 6 0 18
-26 11 -48 -13 -19 -20 -20 -30 -16 -139 l5 -118 -74 0 -74 0 -17 48 c-10 26
-22 56 -26 67 -14 31 -50 186 -45 194 5 9 -41 86 -52 86 -12 -1 -33 65 -33
107 0 26 5 38 18 41 9 3 -1 5 -23 4 l-40 -2 0 -53 c0 -51 -1 -52 -25 -48 -14
3 -70 8 -125 11 -55 4 -108 9 -118 11 -15 5 -17 1 -11 -38 4 -24 22 -76 41
-116 18 -39 33 -78 33 -86 0 -24 90 -135 110 -136 9 0 41 111 35 121 -4 5 -1
9 5 9 7 0 20 10 31 23 14 17 19 40 20 102 1 62 3 73 9 47 4 -18 15 -41 23 -50
29 -32 65 -126 75 -197 23 -154 23 -155 7 -155 -9 0 -15 -9 -15 -25 0 -16 6
-25 15 -25 30 0 14 -27 -30 -48 -54 -26 -65 -27 -65 -6 0 10 -6 14 -14 11 -15
-6 -29 42 -20 68 5 12 -2 15 -35 15 -30 0 -39 4 -35 13 6 17 -13 33 -48 42
-37 9 -88 -39 -88 -84 0 -35 -15 -48 -35 -31 -10 8 -15 31 -15 61 0 26 -5 51
-11 54 -7 5 -2 16 12 31 25 26 15 32 -15 9 -22 -16 -56 -4 -56 20 0 8 -7 15
-16 15 -11 0 -14 -5 -9 -17 4 -10 10 -48 14 -85 l7 -67 -26 5 c-14 2 -49 8
-79 13 -55 9 -81 6 -81 -10 0 -5 -12 -4 -27 2 -15 5 -39 7 -53 3 -14 -5 -31
-8 -39 -9 -8 0 -16 -6 -19 -14 -4 -11 6 -13 54 -7 40 4 72 1 98 -8 50 -17 56
-34 90 -243 14 -87 34 -203 45 -258 10 -55 17 -102 15 -104 -9 -10 -17 12 -29
85 -18 98 -58 265 -63 259 -2 -2 3 -34 11 -72 9 -37 17 -119 19 -182 l3 -113
-40 -20 c-22 -12 -53 -32 -70 -46 l-30 -25 -5 120 c-5 110 -7 124 -31 158 -58
81 -220 175 -314 183 -59 5 -96 -11 -208 -86 -111 -74 -147 -132 -162 -263 -9
-82 -30 -143 -49 -147 -9 -2 -28 -15 -42 -29 -14 -14 -31 -22 -39 -19 -8 3
-15 -2 -17 -11 -2 -11 -35 -27 -98 -47 l-95 -31 0 -67 c0 -54 4 -70 19 -81 18
-13 17 -16 -11 -67 -44 -78 -56 -77 -49 6 12 146 17 216 31 414 18 255 33 431
45 535 15 120 17 113 -42 118 -29 2 24 4 118 5 l172 2 23 84 23 84 73 7 73 7
-5 31 c-2 18 -4 38 -4 45 -1 7 -6 10 -11 7 -6 -4 -8 -10 -6 -14 3 -4 -15 -8
-39 -8 -36 0 -45 4 -45 18 0 10 5 21 10 24 15 10 12 25 -6 25 -18 0 -13 33 18
118 16 43 24 52 44 52 16 0 24 -6 24 -17 0 -9 3 -14 6 -10 3 3 6 33 5 66 0 34
3 71 8 83 5 13 8 26 7 29 0 3 5 13 13 23 8 9 10 20 6 24 -4 4 -10 1 -12 -5 -7
-20 -35 -16 -31 5 2 12 13 17 41 17 20 0 37 3 37 7 0 5 -6 8 -12 8 -9 0 -8 4
2 10 8 5 10 10 4 10 -5 0 -15 -5 -22 -12 -9 -9 -15 -8 -27 8 -14 19 -14 18
-15 -3 0 -13 -4 -23 -10 -23 -5 0 -10 -9 -10 -19 0 -27 -19 -37 -27 -15 -4 10
-2 19 5 22 18 6 14 20 -8 27 -11 3 -20 15 -20 25 0 10 -6 21 -12 23 -9 4 -10
6 -1 6 6 1 18 -6 26 -14 13 -13 17 -13 28 1 7 8 15 11 18 5 4 -5 14 -3 26 6
20 15 20 15 -2 8 -16 -4 -23 -2 -23 7 -1 8 -6 6 -15 -6 -13 -17 -15 -17 -31
-2 -9 9 -24 14 -34 11 -26 -8 -36 14 -14 30 14 10 16 17 8 25 -12 12 -64 3
-64 -11 0 -12 27 -11 35 1 8 12 25 13 25 1 0 -5 -9 -11 -19 -14 -15 -3 -18
-11 -14 -27 4 -17 2 -21 -8 -18 -8 3 -14 12 -14 21 0 25 -21 40 -55 39 -20 0
-30 4 -30 14 0 8 -7 14 -16 14 -13 0 -14 -3 -5 -14 9 -10 9 -16 1 -21 -6 -4
-14 -4 -17 -1 -3 3 -12 1 -20 -6 -21 -17 -36 3 -24 35 7 18 7 27 -1 29 -7 3
-9 12 -5 22 5 11 13 16 23 12 8 -3 12 -2 9 4 -8 13 -35 13 -35 -1 0 -5 -4 -7
-10 -4 -6 4 -7 -2 -1 -17 15 -40 2 -86 -26 -93 -28 -7 -49 7 -38 25 4 6 16 8
28 4 19 -6 20 -5 9 9 -23 27 -58 8 -53 -30 1 -7 -5 -13 -14 -13 -19 0 -19 5 1
35 9 13 12 30 8 36 -4 7 -3 9 4 5 7 -4 10 4 10 24 -2 50 -60 77 -94 43 -15
-16 -17 -16 -30 1 -12 17 -14 16 -28 -15 -14 -33 -14 -34 -15 -7 -1 15 -6 30
-13 34 -8 5 -9 -4 -5 -31 3 -21 12 -42 19 -46 7 -4 9 -11 6 -15 -8 -8 -38 20
-38 36 0 21 -39 87 -52 88 -7 1 -38 6 -68 12 -30 6 -65 10 -77 10 -15 0 -20 5
-17 18 5 19 -31 48 -41 32 -3 -6 -1 -10 5 -10 6 0 8 -5 4 -12 -5 -7 -2 -9 9
-5 12 4 14 2 10 -10 -5 -14 -10 -12 -28 9 -29 34 -124 48 -161 23 -23 -15 -26
-14 -47 8 -19 20 -27 22 -67 15 -25 -5 -76 -10 -115 -12 -44 -2 -112 -16 -185
-39 -63 -20 -144 -42 -180 -50 -36 -8 -72 -16 -80 -18 -23 -6 -38 -32 -42 -70
l-3 -34 -18 37 c-9 20 -22 38 -28 40 -6 2 -12 16 -12 31 1 16 -5 27 -13 27 -8
0 -13 3 -12 8 2 4 -1 8 -7 9 -5 2 -10 -6 -10 -16 0 -11 -3 -23 -7 -27 -5 -4
-8 2 -8 14 0 12 -4 22 -9 22 -21 0 -41 -13 -41 -26 0 -8 -9 -14 -19 -14 -16 0
-20 8 -23 43 -3 38 -5 42 -33 45 -16 2 -36 9 -44 15 -10 9 -16 7 -27 -8 -15
-20 -16 -20 -32 10 -6 11 -12 15 -12 8 0 -7 -7 -10 -15 -7 -18 7 -20 -7 -3
-25 10 -11 10 -13 1 -7 -7 4 -13 2 -13 -4 0 -6 -4 -8 -10 -5 -13 8 -13 -5 5
-73 8 -31 24 -96 36 -144 20 -78 27 -93 68 -133 32 -32 47 -41 49 -31 2 8 10
12 18 9 8 -3 14 -1 14 5 0 6 -6 12 -12 15 -8 2 -9 8 -4 13 5 5 11 4 13 -3 3
-7 11 -13 20 -13 8 0 28 -8 44 -17 24 -14 29 -24 29 -54 0 -21 6 -40 13 -42 7
-3 5 -6 -5 -6 -10 -1 -18 -5 -18 -10 0 -4 -14 -7 -31 -5 -27 3 -30 2 -23 -19
3 -12 24 -52 45 -89 22 -36 39 -71 39 -77 0 -5 9 -25 19 -43 10 -18 22 -55 26
-83 13 -102 6 -95 105 -95 l88 0 6 -87 c3 -49 15 -146 26 -218 31 -198 68
-510 85 -707 12 -135 21 -191 39 -240 l24 -63 42 3 c22 1 55 -4 73 -12 18 -8
58 -17 90 -21 31 -3 57 -11 57 -16 0 -5 -7 -9 -15 -9 -8 0 -20 -9 -27 -20 -11
-17 -24 -20 -76 -20 -34 0 -71 -5 -81 -12 -50 -31 -187 92 -299 267 -38 61
-77 118 -86 128 -9 9 -16 21 -16 27 0 21 -24 60 -38 60 -12 0 -12 -3 -2 -15 7
-8 9 -15 4 -15 -5 0 -3 -4 5 -9 8 -5 15 -21 17 -35 1 -14 5 -34 9 -45 4 -13
-1 -20 -17 -25 -14 -5 -18 -9 -10 -13 14 -6 16 -39 2 -48 -16 -10 -50 14 -50
35 0 11 -4 20 -10 20 -5 0 -10 7 -10 15 0 8 -4 15 -10 15 -5 0 -10 5 -10 10 0
6 -11 28 -25 49 -13 22 -27 51 -31 65 -3 14 -10 26 -14 26 -9 0 -23 39 -21 57
1 7 -2 13 -7 13 -5 0 -17 18 -27 40 -10 22 -21 40 -24 40 -8 0 -31 61 -67 175
-16 50 -32 95 -37 100 -6 6 -7 2 -4 -10 3 -11 13 -58 22 -105 9 -47 30 -134
46 -194 37 -135 36 -166 -3 -106 -16 23 -28 45 -28 49 0 8 -66 71 -75 71 -3 0
-13 7 -21 15 -9 8 -26 15 -38 15 -13 0 -28 6 -34 13 -12 15 -32 158 -33 241
-1 34 -5 72 -9 86 -5 15 -9 -32 -9 -125 0 -82 0 -157 -1 -166 0 -11 -12 -19
-35 -23 -19 -3 -51 -9 -70 -12 -34 -6 -35 -5 -30 22 11 71 13 142 6 174 -7 31
-9 25 -20 -55 -19 -134 -28 -168 -48 -183 -16 -11 -18 -11 -21 5 -1 10 -7 34
-12 53 -5 19 -12 52 -15 72 -7 42 -27 47 -36 8 -4 -14 -7 -76 -8 -137 -1 -106
-3 -115 -28 -153 -16 -21 -36 -42 -46 -45 -9 -4 -27 -25 -38 -48 -12 -23 -28
-46 -35 -50 -37 -21 -88 -186 -77 -249 6 -38 6 -38 -30 -38 -20 0 -39 -4 -42
-10 -9 -15 -51 -12 -65 5 -7 8 -8 15 -3 15 6 0 13 25 17 57 4 31 13 70 20 87
16 35 26 106 15 106 -9 0 -27 79 -33 148 -3 29 -7 56 -10 60 -9 15 -17 203
-14 367 1 94 2 203 2 243 l1 72 90 1 c50 1 81 3 70 6 -36 9 -40 22 -14 50 13
15 17 22 9 16 -10 -7 -37 -8 -79 -3 -56 7 -69 13 -94 42 -33 37 -51 71 -61
110 -4 19 -11 26 -21 22 -11 -5 -14 -2 -8 12 3 11 11 22 16 25 12 8 -1 31 -13
24 -14 -9 -21 13 -11 32 16 30 63 156 71 190 5 21 4 36 -4 42 -7 6 -12 23 -11
38 0 25 3 28 34 27 28 -1 38 5 62 40 l30 40 -23 9 c-12 4 -33 5 -45 2 -13 -3
-23 -1 -23 5 0 7 -13 9 -34 5 -26 -5 -35 -3 -40 10 -8 22 1 35 23 35 10 0 32
7 49 16 32 16 42 32 20 31 -39 -1 -58 5 -58 18 0 8 -4 15 -8 15 -5 0 -7 18 -5
40 2 32 -1 42 -18 51 -15 7 -20 18 -17 34 4 18 1 22 -11 18 -13 -5 -14 -3 -3
8 17 18 16 22 -13 55 -15 17 -24 37 -21 48 3 13 2 16 -5 9 -10 -10 1 -65 37
-183 29 -98 29 -107 -1 -114 -52 -13 -79 45 -29 64 14 6 23 14 20 18 -3 5 -7
19 -10 33 -9 48 -46 140 -67 170 -13 19 -18 34 -12 42 5 7 6 30 2 52 l-6 40
-2 -41 c0 -25 -7 -44 -15 -47 -17 -7 -36 11 -36 35 0 29 -53 32 -292 14 -61
-5 -68 -3 -68 13 0 15 -11 19 -67 25 -90 9 -173 27 -173 38 0 5 -9 7 -20 3
-13 -4 -27 1 -42 14 -13 13 -35 21 -57 21 -19 0 -53 11 -77 25 l-43 25 -4 -27
c-3 -20 -5 -14 -6 17 -2 34 -4 40 -10 25 -5 -11 -6 -25 -4 -31 2 -7 0 -15 -6
-19 -7 -4 -11 3 -11 16 0 12 -3 20 -6 16 -4 -3 -6 -49 -5 -101 0 -53 -3 -96
-8 -96 -4 0 -9 26 -9 58 -3 87 -13 162 -23 162 -5 0 -9 11 -9 24 0 22 -5 25
-62 31 -82 9 -98 13 -98 31 0 8 -5 14 -11 14 -5 0 -8 -4 -4 -9 6 -11 -15 -61
-27 -61 -8 0 -10 10 -11 55 0 17 -1 17 -4 2 -7 -27 -31 -3 -43 44 -11 41 -53
70 -105 73 -14 0 -25 4 -25 8 0 3 -16 1 -36 -5 -45 -14 -85 -53 -108 -104 -10
-21 -21 -47 -26 -58 -5 -11 -11 -40 -12 -64 -4 -59 -27 -75 -62 -42 -23 22
-31 23 -123 19 -106 -5 -179 -28 -189 -61 -5 -15 -14 -18 -47 -15 -37 2 -41 0
-44 -25 -3 -25 -1 -27 29 -27 18 1 53 5 78 10 66 12 141 2 148 -22 4 -16 16
-18 113 -18 85 0 109 3 109 13 0 8 9 22 20 32 17 15 24 16 46 6 25 -11 26 -15
21 -59 -6 -53 3 -78 101 -284 33 -67 62 -131 66 -142 6 -18 7 -18 25 -2 27 24
65 17 69 -12 3 -21 7 -22 45 -17 49 7 113 -17 191 -72 26 -19 45 -29 40 -21
-4 7 6 0 23 -15 39 -36 118 -50 159 -29 38 19 36 17 43 59 6 36 7 37 82 57 52
15 74 25 71 34 -5 17 27 52 48 52 10 0 23 -7 30 -15 12 -15 5 -55 -11 -55 -5
0 -9 -4 -9 -10 0 -5 6 -10 13 -10 31 0 65 -27 89 -69 14 -25 48 -86 77 -136
28 -49 51 -98 51 -108 0 -9 4 -25 9 -35 5 -9 16 -42 25 -73 14 -49 14 -60 2
-90 -8 -19 -30 -49 -49 -67 l-34 -33 5 29 c9 64 -67 152 -132 152 -30 0 -56
-20 -56 -43 0 -11 -7 -13 -22 -9 -22 5 -22 5 -5 -15 14 -16 15 -22 5 -30 -18
-14 -105 -22 -116 -11 -14 14 -142 -2 -142 -18 0 -16 -13 -17 -60 -4 -19 5
-62 12 -95 15 -32 3 -63 9 -68 14 -15 15 67 51 116 51 59 0 80 23 40 43 -15 8
-42 18 -59 21 -27 6 -104 75 -104 93 0 3 -11 14 -25 25 -14 11 -25 26 -25 34
0 9 -5 12 -12 8 -7 -4 -8 -3 -4 4 9 14 -13 92 -31 112 -11 12 -13 7 -14 -35
-1 -28 -1 -58 0 -67 1 -10 -3 -18 -9 -18 -6 0 -9 -4 -6 -8 3 -5 1 -34 -3 -65
-5 -39 -4 -57 3 -57 6 0 4 -4 -4 -10 -12 -7 -10 -12 9 -29 26 -23 51 -28 51
-11 0 6 12 22 28 35 34 31 71 25 115 -16 16 -16 37 -29 45 -29 30 0 1 -13 -45
-21 -27 -4 -57 -11 -67 -15 -13 -5 -17 -4 -13 3 4 6 -5 13 -23 15 -17 3 -30 0
-30 -6 0 -6 -5 -5 -12 2 -29 29 -120 3 -168 -48 -8 -9 -11 -10 -6 -3 5 8 4 13
-4 13 -7 0 -10 8 -7 20 6 22 -18 29 -27 8 -3 -7 -3 -1 0 14 5 23 3 26 -14 21
-14 -3 -21 2 -25 17 -8 29 1 50 22 50 13 0 14 2 1 10 -12 7 -12 12 0 35 11 21
11 27 0 38 -10 10 -11 9 -5 -2 6 -10 4 -12 -4 -6 -8 4 -10 17 -7 31 4 13 2 24
-3 24 -5 0 -13 -15 -17 -33 -4 -17 -9 -26 -11 -19 -3 7 4 41 16 75 41 125 53
162 58 184 3 15 -9 49 -37 100 -23 43 -50 98 -60 123 -10 25 -37 84 -59 132
-23 48 -41 90 -41 93 0 9 -21 27 -54 49 -22 14 -55 20 -136 24 l-107 4 -6 -83
c-4 -46 -7 -153 -7 -237 0 -137 2 -153 18 -158 58 -19 75 -31 95 -65 13 -23
32 -41 47 -44 85 -20 136 -155 91 -242 -25 -51 -56 -73 -96 -72 l-30 1 30 7
c49 12 74 34 91 78 14 36 14 49 4 95 -15 59 -64 118 -99 118 -13 0 -26 11 -36
29 -19 38 -62 71 -91 71 l-24 0 0 -300 c0 -227 3 -300 12 -300 9 0 9 -3 0 -12
-7 -7 -12 -41 -13 -78 0 -59 -15 -173 -18 -142 0 7 -5 11 -10 7 -5 -3 -16 2
-25 10 -18 18 -66 10 -66 -11 0 -8 4 -14 8 -14 13 0 8 -53 -5 -58 -7 -2 -13
-10 -13 -18 0 -7 -12 -16 -27 -20 -45 -9 -83 -26 -83 -35 0 -5 -8 -9 -19 -9
-10 0 -24 -7 -32 -16 -7 -8 -21 -13 -31 -11 -10 3 -21 1 -24 -4 -3 -5 -17 -9
-32 -8 -24 0 -25 1 -7 9 20 8 19 9 -1 9 -12 1 -27 8 -34 16 -7 8 -18 15 -24
15 -13 0 -47 -36 -40 -43 2 -2 -2 -17 -10 -32 -8 -16 -13 -32 -10 -37 3 -5 1
-14 -5 -21 -11 -14 -10 -35 3 -56 6 -10 5 -12 -2 -7 -7 4 -12 1 -12 -8 0 -9
-6 -16 -12 -16 -8 -1 -6 -6 5 -14 13 -10 15 -15 5 -18 -8 -3 -1 -11 17 -22 28
-16 19 -16 -22 1 -25 10 -6 -16 21 -28 18 -8 16 -9 -9 -4 -28 5 -29 4 -11 -10
20 -15 20 -15 0 -15 -19 -1 -19 -1 0 -15 20 -15 20 -15 0 -16 -14 0 -12 -4 11
-14 23 -11 25 -14 10 -14 -39 -1 -47 13 -48 85 0 104 11 202 32 271 12 39 15
65 9 69 -5 3 -2 11 8 19 10 7 15 19 11 28 -4 10 0 20 10 25 12 7 13 14 5 28
-8 16 -19 19 -59 16 -26 -1 -64 -3 -83 -2 -19 0 -30 -3 -25 -8 6 -4 12 -16 13
-27 2 -11 9 -26 15 -33 7 -9 7 -16 -1 -24 -7 -7 -12 -28 -12 -49 0 -42 -32
-89 -61 -89 -26 0 -89 50 -89 71 0 9 11 21 24 28 31 17 57 62 39 68 -7 3 -13
14 -13 26 1 20 2 20 11 5 11 -21 49 -24 49 -5 0 24 -16 33 -58 36 -68 3 -100
-16 -117 -69 -10 -33 -14 -38 -14 -20 -1 14 -5 32 -11 40 -8 12 -10 12 -16 -3
-19 -50 -79 -40 -113 18 -20 35 -23 36 -40 21 -10 -9 -24 -16 -32 -16 -8 0
-36 -18 -63 -40 -26 -22 -41 -40 -33 -40 8 0 20 -6 26 -14 15 -18 19 -92 5
-106 -13 -13 -104 -22 -104 -11 0 9 29 25 41 23 10 -2 8 127 -2 134 -5 3 -7
14 -4 25 5 16 1 19 -25 19 -17 0 -41 -5 -52 -11 -18 -10 -25 -8 -41 12 -14 17
-21 20 -24 11 -4 -10 -8 -8 -18 5 -14 19 -94 26 -108 8 -6 -6 -10 -6 -14 3
-13 32 -80 -15 -89 -63 -8 -46 -22 -44 -29 3 -11 60 -16 72 -30 72 -8 0 -14
-8 -14 -17 0 -10 -4 -35 -9 -56 -6 -22 -6 -52 -1 -75 13 -57 11 -99 -6 -105
-17 -7 -29 8 -19 25 7 12 13 178 6 178 -2 0 -12 -10 -23 -22 -14 -18 -18 -39
-19 -90 0 -50 -4 -68 -13 -68 -18 0 -40 83 -38 147 2 44 -19 123 -32 123 -2 0
-28 5 -57 10 -53 10 -54 10 -80 -22 -24 -29 -30 -31 -51 -22 -31 15 -58 96
-39 119 13 16 13 16 -42 79 -10 11 -19 25 -19 30 -1 6 -3 24 -5 39 -4 37 12
77 30 77 8 0 29 -18 46 -39 18 -22 50 -47 71 -58 21 -10 39 -21 39 -25 0 -5 5
-8 11 -8 10 0 88 -75 89 -85 3 -41 5 29 10 335 5 362 5 365 -17 418 -28 65
-28 72 -1 101 19 22 21 35 23 181 1 86 5 162 9 168 5 8 21 10 47 6 29 -5 43
-3 52 8 14 17 57 31 57 18 0 -5 -8 -11 -17 -13 -10 -3 1 -5 24 -6 23 0 45 4
48 9 3 6 1 10 -6 10 -10 0 -10 3 -1 12 15 15 16 32 1 23 -6 -4 -5 2 3 14 7 12
17 21 23 21 11 0 17 44 9 78 -2 13 -9 20 -13 17 -5 -3 -7 5 -4 17 5 18 3 21
-7 11 -18 -16 -40 -5 -40 21 0 12 -5 27 -12 34 -9 9 -8 12 5 12 20 0 41 -35
31 -53 -5 -8 -4 -9 4 -2 8 7 4 40 -15 118 -19 83 -23 113 -15 130 l11 22 0
-22 c1 -33 18 -37 24 -5 4 20 0 32 -18 47 -13 11 -27 31 -30 45 -4 14 -16 36
-25 50 -53 75 -43 207 21 272 94 94 248 70 311 -47 10 -17 9 -18 -4 -7 -30 24
-123 50 -159 43 -67 -12 -123 -78 -134 -158 -8 -64 0 -93 27 -93 11 0 22 -8
25 -20 7 -25 22 -26 39 -3 8 12 9 22 3 30 -7 8 -3 17 15 28 14 10 26 25 26 35
0 23 31 33 94 32 57 -1 68 -9 73 -56 4 -43 -23 -64 -58 -45 -21 11 -99 7 -120
-6 -5 -3 -3 -14 3 -25 7 -10 16 -16 20 -14 4 3 8 -4 8 -15 0 -23 34 -45 56
-37 24 9 16 28 -8 21 -20 -5 -21 -4 -5 5 9 6 21 9 26 5 5 -3 12 -1 16 5 11 18
23 11 30 -17 4 -16 7 -30 8 -33 1 -3 -11 -8 -28 -11 -22 -5 -24 -7 -8 -8 15
-1 21 -7 20 -21 -1 -17 -9 -20 -47 -21 -42 -1 -43 -1 -17 -11 28 -10 33 -35
13 -67 -15 -23 -77 -6 -109 31 -16 18 -27 29 -25 23 15 -39 33 -64 50 -68 11
-3 22 -15 25 -26 3 -12 12 -21 19 -21 16 0 19 -36 4 -45 -5 -3 -22 5 -37 19
-38 36 -46 32 -20 -9 31 -49 64 -43 82 15 7 24 51 69 69 70 4 0 5 -19 2 -42
-9 -58 -6 -163 5 -188 1 -3 2 -12 3 -20 1 -22 256 -26 256 -4 0 8 5 14 11 14
5 0 7 -4 4 -10 -7 -12 21 -13 195 -10 69 1 130 6 137 12 7 5 17 7 23 3 6 -4
18 -1 26 6 12 10 15 10 12 -2 -2 -11 13 -15 71 -17 69 -3 76 -1 102 24 16 15
29 33 29 39 0 7 -39 53 -87 104 -64 68 -89 88 -96 79 -6 -10 -8 -9 -4 3 4 11
-6 27 -24 43 -32 29 -49 35 -28 9 14 -17 20 -95 7 -86 -5 2 -8 17 -8 34 0 27
-3 29 -36 29 -34 0 -36 -2 -30 -25 4 -14 2 -25 -3 -25 -13 0 -23 48 -15 72 4
12 12 18 23 15 9 -2 22 2 30 10 10 11 10 17 0 31 -29 38 -194 202 -205 202
-12 0 -94 -84 -189 -193 -63 -74 -64 -74 -78 0 -6 29 1 40 94 144 63 70 99
118 97 129 -2 10 -86 105 -189 212 -102 106 -205 214 -228 241 -24 26 -49 47
-56 47 -6 0 -25 -15 -40 -32 -16 -18 -106 -116 -200 -218 -94 -102 -183 -198
-198 -215 -15 -16 -27 -36 -27 -44 0 -15 36 -56 179 -205 98 -103 100 -96 -33
-145 -156 -59 -168 -72 -172 -198 -1 -48 -8 -119 -14 -157 -6 -38 -10 -87 -9
-110 0 -22 -5 -55 -12 -73 -12 -28 -10 -37 11 -83 13 -28 30 -56 37 -62 7 -6
13 -18 13 -27 0 -9 9 -27 19 -40 17 -22 17 -26 3 -51 -15 -26 -14 -29 16 -66
l32 -39 -21 -120 c-24 -144 -33 -157 -84 -126 -20 11 -44 21 -53 21 -9 0 -26
7 -37 15 -12 10 -30 13 -50 9 -25 -4 -38 1 -72 31 -38 32 -43 41 -43 79 0 32
8 52 32 84 38 50 46 107 23 169 -9 24 -20 43 -25 43 -5 0 -21 25 -36 55 -29
60 -29 79 -5 235 15 95 13 203 -4 255 -9 25 -13 50 -9 56 3 6 8 31 11 56 4 36
0 52 -16 74 -12 16 -21 36 -21 45 0 10 -3 14 -7 11 -3 -4 -12 -2 -19 4 -19 16
-31 4 -39 -37 -7 -41 -17 -53 -66 -83 -35 -22 -119 -29 -119 -11 0 6 -7 10
-16 10 -8 0 -22 17 -31 38 -8 20 -20 40 -27 44 -7 5 -11 43 -12 103 0 54 3 90
7 83 5 -8 9 6 9 35 0 50 13 86 36 100 7 4 18 33 24 64 10 47 10 62 -3 87 -11
24 -12 45 -6 95 8 52 7 106 0 164 -1 4 -8 7 -17 5 -10 -2 -19 3 -21 10 -3 7 4
12 16 12 12 0 21 5 21 10 0 6 -9 10 -19 10 -12 0 -25 12 -33 30 -7 17 -20 30
-29 30 -9 0 -22 7 -29 15 -7 8 -23 15 -37 15 -17 0 -30 10 -44 35 -12 19 -24
35 -28 35 -4 0 -13 12 -19 26 -7 14 -16 23 -21 20 -5 -3 -19 5 -32 17 -13 13
-32 27 -42 30 -11 4 -21 16 -24 27 -3 11 -20 24 -40 31 -19 6 -37 17 -40 25
-3 8 -12 14 -20 14 -15 0 -70 38 -65 46 7 12 0 15 -11 5 -8 -6 -17 -7 -21 -3
-5 4 -7 0 -6 -8 4 -26 0 -74 -5 -68 -7 7 -7 1689 0 1696 5 5 1119 -15 1303
-23 45 -2 430 -6 855 -9 493 -3 703 -1 582 4 -104 5 -221 11 -260 15 -38 3
-107 6 -153 6 -45 1 -85 5 -88 10 -3 5 -16 9 -30 9 -33 0 -30 20 4 21 16 1 20
3 10 6 -13 3 -18 16 -20 46 -2 56 -2 58 7 90 6 21 4 27 -9 27 -9 0 -16 7 -16
15 0 8 5 15 10 15 6 0 13 -7 16 -15 4 -8 12 -15 20 -15 7 0 18 -8 23 -17 10
-17 10 -17 11 0 0 14 9 17 55 17 34 0 55 4 55 11 0 8 -17 9 -55 4 -50 -6 -55
-5 -55 13 0 11 -7 22 -15 26 -8 3 -15 10 -15 16 0 5 7 10 15 10 8 0 15 -7 15
-15 0 -26 29 -16 45 15 18 35 35 39 35 10 0 -11 7 -23 15 -26 8 -3 17 -14 20
-25 4 -10 15 -19 26 -19 10 0 19 -4 19 -10 0 -5 -7 -10 -15 -10 -11 0 -15 -11
-15 -40 0 -33 3 -40 20 -40 17 0 20 7 20 40 0 39 1 40 35 40 34 0 35 -1 35
-40 l0 -40 40 0 40 0 0 51 c0 43 4 54 25 71 14 11 25 26 25 33 0 20 32 35 74
35 31 0 36 -3 36 -24 0 -22 5 -25 42 -28 35 -2 45 -8 56 -30 16 -35 30 -35 42
-3 5 14 16 25 25 25 10 0 15 10 15 34 0 83 13 156 28 156 12 0 14 10 9 53 -3
33 0 63 8 82 13 30 13 30 16 5 3 -35 17 64 18 128 l1 52 -839 0 -840 0 -4 -32
-4 -33 -1 33 -2 32 -805 0 -805 0 0 -4000z m3909 66 c25 -30 -9 -226 -40 -226
-4 0 -12 13 -19 30 -7 16 -15 28 -19 26 -8 -5 -14 129 -6 154 4 11 10 18 14
16 4 -3 13 -1 21 5 21 13 36 11 49 -5z m445 -247 c19 -11 41 -30 49 -42 14
-22 14 -23 -17 -19 -38 4 -70 -17 -60 -41 10 -27 66 -27 96 0 17 15 18 15 19
-3 0 -10 3 -32 5 -49 8 -44 -5 -95 -24 -102 -9 -3 -24 -11 -32 -18 -24 -19
-59 -24 -90 -14 -20 7 -35 7 -49 -1 -17 -9 -20 -8 -14 6 4 11 2 15 -4 11 -6
-4 -15 11 -22 38 -13 53 -14 88 -2 81 5 -3 23 -1 40 5 44 15 44 54 0 63 -17 3
-34 4 -39 1 -12 -7 -3 40 11 64 12 19 51 37 86 40 6 1 27 -8 47 -20z m2997
-264 c18 0 129 -60 129 -70 0 -6 -6 -20 -14 -31 -13 -17 -12 -22 17 -51 17
-18 35 -33 41 -33 6 0 25 -14 43 -32 18 -18 33 -27 33 -20 0 7 -9 21 -20 32
-11 11 -17 20 -14 20 4 0 -1 11 -10 25 -16 24 -16 26 9 35 21 8 25 16 25 51 0
34 2 39 14 30 18 -15 36 -109 36 -185 0 -42 6 -69 17 -86 12 -17 13 -25 5 -28
-16 -5 -15 -22 2 -22 7 0 28 -15 47 -32 33 -32 34 -35 39 -133 l5 -100 79 3
c44 1 85 7 92 13 8 7 14 6 19 -1 5 -8 35 -11 89 -8 67 2 81 0 81 -12 0 -12
-13 -15 -65 -13 -36 2 -96 -2 -134 -7 -49 -8 -72 -7 -82 0 -12 11 -78 7 -126
-7 -12 -3 -18 1 -18 11 0 13 -13 16 -62 17 -35 0 -57 3 -50 6 6 2 12 14 12 24
0 11 -4 18 -9 15 -11 -7 -21 53 -21 132 0 43 -4 62 -12 62 -8 0 -7 4 3 10 8 5
31 5 53 0 l37 -8 -7 31 c-3 18 -10 34 -15 35 -5 2 -9 10 -9 17 0 19 -35 54
-100 100 -68 48 -167 142 -184 175 -15 28 -10 54 7 43 7 -4 15 -8 18 -8z
m3949 -556 c22 -12 40 -26 40 -32 0 -6 7 -18 16 -28 12 -13 16 -38 15 -96 0
-74 -7 -153 -15 -160 -8 -8 -57 18 -51 27 3 5 -1 10 -9 10 -10 0 -13 -6 -10
-15 9 -23 -53 -20 -65 3 -8 16 -15 75 -26 210 -3 47 -1 57 20 78 29 29 34 29
85 3z m-6414 -133 c3 -8 13 -16 22 -18 10 -3 29 -34 45 -72 23 -57 27 -81 27
-164 0 -97 0 -98 56 -222 66 -148 77 -180 61 -180 -7 0 -43 9 -82 20 -38 11
-80 20 -93 20 -19 0 -21 -3 -12 -19 9 -18 8 -41 -6 -108 -6 -29 -20 -30 -27
-2 -4 13 -10 18 -18 14 -8 -6 -10 -31 -5 -92 5 -55 4 -83 -3 -79 -11 7 -26
-30 -22 -56 2 -19 -15 -33 -24 -18 -8 13 -101 13 -126 0 -18 -10 -19 -7 -19
60 0 41 4 70 10 70 18 0 70 93 70 125 0 17 -7 40 -15 52 -19 26 -10 80 16 93
10 6 28 10 41 10 13 0 18 3 12 8 -6 4 -14 24 -17 45 -11 71 -128 231 -175 240
-15 3 -38 8 -52 12 -104 29 -209 31 -288 4 -48 -16 -64 -27 -74 -49 -12 -28
-14 -28 -35 -15 -29 19 -43 19 -43 0 0 -8 -5 -15 -12 -15 -6 0 -19 -6 -27 -14
-9 -8 -30 -17 -47 -20 -30 -7 -33 -4 -53 37 -29 59 -27 108 5 157 32 48 42 45
24 -9 -17 -52 -10 -73 15 -44 18 22 19 22 32 3 17 -24 29 -25 37 -5 3 9 -3 24
-13 34 -31 31 -56 90 -43 103 8 8 14 5 21 -13 9 -22 10 -21 10 13 1 50 24 62
104 54 187 -19 339 -18 476 4 75 12 150 28 166 35 40 18 74 18 81 1z m6579
-16 c16 -16 32 -30 36 -30 14 0 99 -91 99 -106 0 -8 6 -14 14 -14 20 0 67 -40
60 -52 -3 -5 -17 -7 -30 -4 -14 4 -24 2 -24 -4 0 -6 -8 -9 -18 -6 -13 5 -22
-1 -30 -20 -14 -29 -32 -28 -48 5 -11 22 -11 22 -17 2 -7 -27 -27 -27 -27 -1
0 11 -4 20 -10 20 -5 0 -10 -7 -10 -15 0 -17 -16 -20 -25 -5 -4 6 -8 25 -10
43 -2 18 -8 59 -14 92 -16 91 -15 125 7 125 10 0 31 -13 47 -30z m-1740 -49
c4 -39 4 -74 0 -80 -3 -6 -1 -20 5 -32 7 -11 9 -33 5 -47 l-7 -27 -19 25 c-10
14 -19 33 -19 42 0 12 -7 17 -22 15 -17 -1 -28 8 -46 41 -13 23 -19 42 -13 42
7 0 16 -12 22 -26 5 -15 12 -24 15 -21 4 3 -5 26 -19 51 l-25 46 31 14 c82 37
84 36 92 -43z m-1954 -221 c10 -51 17 -96 14 -100 -3 -5 -1 -11 4 -14 5 -3 12
-44 16 -91 4 -47 10 -85 15 -85 7 0 23 -70 35 -160 5 -42 5 -44 -10 -26 -8 11
-15 15 -15 9 0 -21 32 -138 41 -149 5 -6 10 -24 11 -40 1 -16 5 -33 8 -39 13
-20 19 -45 11 -45 -13 0 -75 109 -104 181 -13 35 -34 118 -46 184 -13 66 -26
140 -31 164 -17 91 9 20 40 -109 32 -134 49 -184 50 -147 0 9 5 17 11 17 5 0
7 5 4 10 -4 6 -10 8 -15 5 -8 -5 -10 1 -35 150 -35 211 -49 402 -28 382 2 -3
13 -46 24 -97z m-5757 -25 c9 -14 13 -31 9 -38 -8 -13 -9 -18 -11 -55 -4 -55
-89 -95 -112 -53 -14 28 -13 91 3 93 6 0 17 2 23 2 17 2 44 27 44 40 0 10 19
36 26 36 1 0 9 -11 18 -25z m186 -381 c0 -8 5 -14 10 -14 6 0 10 7 10 15 0 31
26 13 38 -26 14 -44 4 -69 -26 -69 -12 0 -14 -10 -7 -57 4 -32 6 -79 6 -104
-1 -33 4 -53 20 -73 24 -31 23 -33 -20 -46 -23 -6 -35 -5 -45 6 -19 18 -30
128 -20 196 4 29 8 76 9 103 4 90 5 96 15 90 6 -3 10 -13 10 -21z m2397 -369
c15 -5 22 -14 21 -29 -2 -21 -5 -21 -157 -17 -86 1 -158 5 -160 7 -2 2 7 15
20 29 24 26 25 26 139 21 63 -2 125 -8 137 -11z m4343 -224 c8 -21 20 -30 43
-34 156 -26 210 -29 423 -24 l232 5 31 -42 32 -41 -85 -3 c-86 -3 -99 -9 -71
-32 11 -9 43 -11 123 -6 107 7 189 -2 202 -23 3 -6 27 -15 52 -20 69 -12 148
-84 184 -165 l27 -64 91 -6 c101 -6 192 -19 219 -31 33 -14 18 -31 -32 -33
-27 -1 -61 -6 -76 -12 -14 -6 -37 -7 -50 -4 -40 10 -355 30 -465 30 -100 -1
-105 0 -134 27 -33 29 -59 36 -50 12 7 -18 -12 -20 -19 -2 -4 9 -8 9 -16 -2
-8 -12 -11 -10 -16 12 -4 15 -13 27 -21 27 -17 0 -19 -63 -3 -109 6 -18 8 -35
5 -39 -11 -11 -26 21 -26 56 0 19 -5 32 -12 32 -7 0 -20 15 -28 33 -16 34 -47
48 -61 26 -5 -9 -11 -10 -21 -2 -7 6 -23 14 -35 17 -17 6 -23 3 -23 -8 0 -9 4
-16 8 -16 5 0 14 -22 21 -50 10 -40 17 -50 34 -50 20 0 20 0 2 -14 -17 -12
-18 -17 -7 -40 7 -15 16 -25 21 -22 5 3 11 -3 14 -13 2 -10 31 -38 63 -62 70
-51 164 -146 164 -166 0 -8 20 -52 46 -100 47 -88 51 -121 8 -68 -16 19 -27
26 -32 19 -4 -6 -40 -13 -79 -16 -40 -3 -79 -10 -86 -16 -7 -6 -18 -7 -25 -3
-17 10 -57 4 -101 -16 -21 -10 -29 -18 -22 -22 16 -11 335 -11 352 -1 7 5 22
3 33 -3 12 -6 43 -16 70 -22 65 -13 74 -35 14 -35 -92 1 -677 -19 -753 -26
-44 -4 -91 -7 -105 -8 l-25 -1 3 105 c2 73 7 111 18 128 13 20 14 34 5 92 -6
38 -11 72 -11 75 0 4 -7 5 -14 2 -10 -4 -13 -1 -9 9 4 10 -3 14 -24 14 -16 0
-33 3 -36 7 -11 10 13 33 35 33 52 0 158 79 158 118 0 11 7 13 28 7 15 -4 51
-9 80 -10 29 -2 58 -7 65 -12 10 -9 73 -33 83 -33 2 0 4 4 4 9 0 18 -52 71
-69 71 -9 0 -24 13 -33 28 -27 45 -106 117 -131 119 -32 2 -90 26 -103 42 -6
8 -16 11 -22 7 -17 -10 -55 32 -49 55 4 13 0 19 -13 19 -31 0 -61 62 -39 80
13 11 20 50 9 50 -8 0 -9 11 -4 33 4 17 6 60 6 95 -1 67 9 79 28 33z m-3727
-58 c-2 -17 2 -23 16 -23 10 0 22 -7 25 -16 9 -22 7 -36 -3 -30 -4 3 -72 8
-151 11 -78 3 -163 10 -188 16 -25 5 -132 10 -237 9 -104 0 -208 3 -230 8
-102 21 341 25 658 6 76 -4 87 -3 87 12 0 13 -8 15 -35 12 -19 -2 -35 -1 -35
3 0 12 23 18 60 16 30 -2 35 -5 33 -24z m2692 0 c11 -7 15 -13 10 -13 -6 0 -5
-4 1 -8 6 -4 14 -17 18 -29 6 -20 4 -23 -18 -23 -30 0 -42 -16 -26 -35 10 -13
7 -15 -19 -17 -17 -1 -45 -2 -62 -3 -35 -2 -52 22 -26 37 13 7 14 13 5 27 -14
23 15 71 43 71 11 0 19 4 19 10 0 11 26 3 55 -17z m4038 -73 c2 -3 7 -14 11
-26 6 -19 3 -20 -91 -18 -72 1 -102 -3 -114 -13 -14 -12 -17 -11 -22 7 -5 18
-14 20 -79 21 -108 2 -136 -1 -173 -17 -19 -8 -46 -14 -60 -14 -14 0 -28 -7
-32 -16 -4 -12 -20 -15 -72 -14 -36 1 -103 -1 -148 -5 l-82 -8 16 -24 c13 -19
21 -23 44 -18 18 4 29 2 29 -4 0 -6 -8 -11 -17 -11 -16 0 -16 -2 -3 -11 12 -9
11 -10 -8 -6 -12 3 -19 1 -16 -4 3 -5 3 -28 -1 -50 -5 -28 -11 -39 -21 -35 -7
3 -16 1 -19 -4 -8 -13 -25 -13 -25 0 0 10 -31 49 -65 82 -11 10 -20 24 -21 31
-3 32 -5 36 -18 31 -8 -3 -17 -1 -21 5 -3 6 -17 11 -31 11 -13 0 -24 4 -24 10
0 13 124 50 168 50 19 0 105 9 191 19 237 29 283 33 275 19 -5 -8 -3 -8 7 -2
8 5 46 12 84 15 80 7 331 6 338 -1z m-4188 -147 c-8 -35 -5 -33 -49 -38 -23
-3 -35 -1 -31 5 3 5 -1 10 -9 10 -9 0 -18 -11 -22 -25 l-6 -25 -28 20 c-15 11
-31 20 -33 20 -3 0 -5 -26 -4 -57 1 -33 -3 -58 -9 -60 -6 -2 -35 -19 -64 -38
-30 -19 -58 -35 -62 -35 -4 0 -10 10 -13 23 -3 12 -14 60 -25 107 -11 47 -20
90 -20 97 0 12 12 13 304 21 l78 2 -7 -27z m-463 -109 l44 -6 -8 -60 c-9 -67
-6 -78 23 -78 28 0 23 -17 -8 -33 -21 -11 -90 -16 -260 -20 -231 -5 -232 -5
-235 17 -3 20 -8 21 -113 22 -147 1 -308 13 -319 25 -6 6 -5 9 3 9 7 0 10 4 7
8 -6 11 96 8 113 -3 7 -4 16 -3 20 2 6 9 30 8 195 -11 l38 -4 -6 37 -6 38 148
12 c81 6 190 12 243 12 123 0 161 19 64 32 -18 2 -21 5 -9 6 12 0 41 -2 66 -5z
m1649 -14 c10 -6 26 -24 34 -40 l16 -30 -46 0 c-26 0 -45 -5 -45 -11 0 -8 17
-9 53 -5 63 8 73 0 72 -58 0 -39 -1 -39 -59 -59 l-59 -20 -28 34 c-25 30 -30
33 -48 22 -12 -7 -26 -13 -33 -13 -23 0 -158 73 -196 106 l-37 32 25 10 c25
10 167 30 250 35 25 2 53 4 63 5 10 1 27 -3 38 -8z m-7073 -60 c1 0 2 -6 2
-14 0 -12 -27 -15 -147 -16 -290 -3 -419 -13 -474 -35 -10 -3 -20 -1 -24 5 -5
7 -10 8 -14 3 -3 -6 -26 -13 -51 -17 -31 -4 -40 -3 -30 4 13 8 12 10 -4 10
-12 0 -16 3 -10 9 12 12 247 43 315 41 30 0 97 3 149 9 72 7 217 8 288 1z
m1818 -475 c-3 -8 1 -21 9 -29 8 -8 15 -24 15 -35 0 -12 5 -21 11 -21 7 0 9
-10 7 -25 -3 -14 1 -30 8 -36 8 -6 14 -18 14 -25 0 -23 -51 -6 -88 30 -30 28
-82 115 -82 136 0 12 25 7 43 -9 12 -10 19 -10 36 1 12 7 21 16 21 20 0 5 3 8
6 8 3 0 4 -7 0 -15z"/>
<path d="M3386 7883 c3 -65 7 -206 8 -313 2 -107 3 -237 4 -287 l2 -93 43 0
c23 0 51 8 62 16 18 14 18 16 4 24 -20 12 -16 48 13 107 19 39 20 49 10 129
-8 62 -9 91 -1 100 6 8 11 69 12 148 2 131 13 177 33 145 4 -7 3 -14 -4 -17
-14 -4 -16 -82 -2 -82 6 0 10 18 10 39 0 22 5 43 10 46 6 3 10 22 10 41 l0 34
78 0 c49 1 83 6 95 14 18 14 18 15 1 24 -15 9 -16 13 -5 26 12 15 -2 16 -162
16 l-176 0 -4 -122 -3 -123 -2 123 c-2 115 -3 122 -22 122 -20 0 -21 -4 -14
-117z"/>
<path d="M5154 7838 c3 -90 7 -246 10 -348 3 -102 7 -216 9 -255 l4 -70 36 -3
c21 -2 37 1 37 7 0 6 8 11 18 12 14 0 15 1 2 7 -13 6 -16 33 -16 172 0 131 1
148 6 85 5 -56 6 -44 2 40 -7 168 -2 349 9 353 6 2 5 10 -2 19 -10 11 -10 16
0 23 8 5 10 13 5 21 -4 7 -7 32 -5 56 l3 43 -36 0 -35 0 -4 -147 -3 -148 -2
148 c-2 141 -3 147 -22 147 -20 0 -21 -4 -16 -162z"/>
<path d="M6842 7888 c0 -62 4 -126 8 -143 9 -31 23 -423 20 -550 0 -38 -6 -75
-12 -82 -8 -11 16 -13 127 -13 76 0 136 3 133 6 -4 3 -47 5 -97 5 l-91 -1 0
56 c0 34 4 53 10 49 6 -4 10 8 10 29 0 20 -4 36 -10 36 -5 0 -10 7 -10 15 0 9
6 12 15 9 9 -4 15 -19 15 -36 0 -18 4 -27 11 -23 5 4 9 17 7 28 -1 12 1 28 6
36 5 8 4 16 -4 21 -7 4 -8 10 -3 13 5 3 5 55 1 119 -4 62 -5 127 -1 143 3 17
5 58 5 93 -1 36 2 62 8 62 15 0 12 77 -2 84 -7 3 -3 3 10 0 20 -5 22 -2 22 35
0 23 -4 41 -10 41 -5 0 -10 18 -10 40 l0 40 -79 0 -79 0 0 -112z"/>
<path d="M7870 7958 c0 -24 4 -60 9 -80 6 -25 5 -38 -2 -41 -6 -2 0 -14 12
-26 14 -14 26 -19 30 -13 3 5 15 11 26 13 11 3 20 11 20 19 0 8 9 18 20 22 32
10 95 9 95 -2 0 -5 -18 -10 -40 -10 -22 0 -40 -4 -40 -10 0 -5 18 -10 40 -10
29 0 40 -4 40 -15 0 -11 12 -15 44 -15 45 0 69 -16 46 -30 -8 -5 -3 -10 14
-14 30 -7 26 -26 -5 -26 -28 0 -23 -17 9 -28 l27 -10 -27 -1 c-18 -1 -28 -6
-28 -16 0 -12 16 -15 80 -15 l80 0 0 36 c0 21 4 33 10 29 6 -3 10 -31 10 -60
0 -45 4 -56 21 -65 11 -7 26 -9 34 -7 7 3 17 1 23 -5 8 -8 13 -7 18 5 11 29
19 19 19 -23 0 -41 -8 -52 -19 -24 -5 13 -9 14 -21 4 -18 -15 -11 -28 21 -40
14 -6 24 -18 24 -30 0 -11 4 -20 8 -20 5 0 4 -22 -2 -49 -7 -35 -6 -61 2 -88
6 -21 13 -82 16 -135 4 -86 2 -98 -12 -99 -9 -1 1 -5 23 -9 22 -5 69 -6 105
-3 66 5 94 13 49 13 -23 1 -23 1 -5 15 11 8 14 15 8 15 -17 0 -15 20 5 42 10
11 12 18 4 18 -8 0 -9 5 -1 19 5 11 10 36 10 55 0 30 4 36 21 36 20 0 21 4 17
50 -3 28 -1 53 3 56 5 3 9 -2 9 -10 0 -12 11 -16 43 -17 77 -3 102 -6 117 -12
8 -3 29 -7 45 -9 25 -3 30 -7 30 -30 0 -14 3 -30 8 -34 4 -4 7 0 7 9 0 13 9
17 35 17 24 0 35 5 35 15 0 20 13 19 33 -3 23 -25 21 -32 -8 -32 -21 0 -25 -5
-25 -30 0 -20 -5 -30 -15 -30 -8 0 -15 -4 -15 -10 0 -10 13 -14 37 -11 6 1 25
-13 43 -30 34 -34 33 -57 -2 -67 -20 -5 -20 -6 -2 -19 19 -14 19 -15 0 -29
-18 -13 -15 -14 35 -14 30 0 153 -5 274 -10 447 -19 956 -39 1160 -45 116 -3
345 -10 510 -15 165 -5 419 -12 565 -15 146 -3 289 -8 318 -10 l52 -5 0 530 0
530 -2000 0 c-1771 0 -2000 -2 -2000 -15 0 -17 -16 -20 -24 -6 -4 5 0 12 6 14
7 3 -3 6 -22 6 -23 0 -30 -2 -21 -8 11 -7 10 -11 -4 -19 -17 -9 -17 -10 3 -16
12 -4 31 -4 42 -1 14 4 20 2 20 -8 0 -10 -8 -13 -25 -9 -13 2 -32 1 -42 -2
-15 -6 -15 -8 -3 -16 10 -7 11 -10 3 -10 -7 0 -13 -9 -13 -20 0 -11 5 -20 10
-20 6 0 5 -6 -2 -14 -11 -12 -14 -8 -20 23 -4 20 -7 55 -7 79 -1 30 -5 42 -16
42 -11 0 -15 -11 -15 -42z"/>
<path d="M4035 6923 c-74 -16 -111 -40 -154 -101 -35 -50 -40 -144 -12 -200
23 -45 62 -86 102 -107 24 -13 28 -12 54 15 16 17 27 31 24 32 -2 2 -22 12
-43 23 -51 26 -78 64 -80 112 -2 81 50 142 130 151 34 4 52 -1 89 -23 l47 -27
23 22 c30 29 24 42 -33 73 -47 25 -109 38 -147 30z"/>
<path d="M8740 6741 c-13 -4 -33 -22 -44 -40 -16 -28 -17 -38 -7 -70 16 -54
55 -93 89 -89 25 3 27 6 27 52 0 27 5 51 11 53 20 7 47 -37 51 -84 7 -68 -26
-117 -82 -121 -46 -4 -111 22 -142 58 -22 25 -22 25 -23 3 0 -37 59 -110 107
-133 47 -22 63 -25 63 -11 0 5 9 7 19 4 28 -7 76 33 97 80 20 44 23 134 6 178
-16 40 -73 100 -109 115 -18 8 -34 14 -35 13 -2 -1 -14 -4 -28 -8z"/>
<path d="M4077 6703 c-4 -3 -7 -19 -7 -35 0 -25 3 -28 35 -28 19 0 35 -5 35
-11 0 -6 -51 -64 -112 -130 -62 -66 -114 -123 -116 -128 -1 -4 15 -7 37 -7 38
1 47 8 145 111 97 101 106 108 107 83 1 -16 2 -34 3 -40 0 -7 16 -14 34 -16
l32 -3 0 105 0 106 -93 0 c-52 0 -97 -3 -100 -7z"/>
<path d="M9037 6639 c-61 -47 -55 -154 11 -208 43 -36 82 -40 123 -10 88 62
37 239 -69 239 -25 0 -49 -8 -65 -21z"/>
<path d="M9245 6538 c8 -145 8 -148 35 -148 15 0 20 7 20 28 0 35 16 52 51 52
45 0 74 31 72 78 -1 23 -7 51 -13 62 -15 29 -69 50 -125 50 l-46 0 6 -122z"/>
<path d="M9514 6640 c-88 -36 -84 -196 7 -244 37 -20 69 -18 102 6 12 9 16 20
11 31 -5 15 -14 17 -46 12 -41 -7 -68 5 -68 31 0 11 16 14 65 14 l65 0 0 33
c0 44 -34 95 -75 113 -19 8 -36 14 -37 13 -2 0 -13 -4 -24 -9z"/>
<path d="M9784 6627 c-10 -6 -22 -15 -26 -21 -4 -6 -9 -4 -14 7 -4 11 -17 17
-39 17 l-33 0 5 -102 c6 -143 7 -148 43 -148 l29 0 3 87 c3 76 5 88 22 91 31
6 40 -15 46 -101 5 -80 6 -82 32 -85 35 -4 38 11 30 125 -5 67 -12 96 -25 111
-23 25 -49 32 -73 19z"/>
<path d="M2949 6576 c51 -54 133 -71 194 -40 37 19 67 44 67 56 0 4 -64 8
-142 8 l-141 0 22 -24z"/>
<path d="M4490 5651 l-65 -6 0 -62 c1 -35 2 -137 3 -228 l2 -165 40 0 40 0 0
95 0 95 40 0 40 0 0 40 0 40 -40 0 -40 0 0 55 0 55 39 0 c43 0 50 11 43 63 -3
18 -10 26 -21 25 -9 -1 -45 -4 -81 -7z"/>
<path d="M4643 5538 c4 -66 7 -170 7 -230 l0 -108 40 0 40 0 0 153 c0 85 -3
188 -6 230 l-7 77 -40 0 -40 0 6 -122z"/>
<path d="M4783 5533 c4 -71 7 -174 7 -230 l0 -103 35 0 34 0 3 133 3 132 35
-130 35 -130 43 -3 42 -3 -2 228 -3 228 -37 3 -38 3 -1 -133 -1 -133 -35 133
-36 132 -45 0 -45 0 6 -127z"/>
<path d="M5584 5650 c-48 -19 -56 -51 -55 -216 1 -85 6 -165 11 -178 21 -56
94 -82 150 -53 30 15 52 76 48 127 -4 32 -7 35 -41 38 l-37 3 0 -44 c0 -28 -6
-49 -15 -57 -32 -26 -39 3 -40 153 0 137 1 142 21 145 18 3 23 -3 28 -41 6
-36 11 -46 29 -49 39 -7 47 1 47 48 0 59 -23 102 -65 120 -38 16 -51 16 -81 4z"/>
<path d="M5060 5610 c0 -36 3 -40 24 -40 l24 0 7 -185 7 -185 37 0 37 0 -4
180 -4 180 26 0 c24 0 26 3 26 45 l0 45 -90 0 -90 0 0 -40z"/>
<path d="M5283 5553 c4 -54 7 -155 7 -225 l0 -128 90 0 90 0 0 40 0 40 -50 0
-50 0 0 50 0 50 45 0 45 0 -3 43 c-2 42 -2 42 -44 45 l-43 3 0 50 0 50 48 -3
47 -3 0 40 0 40 -94 3 -94 3 6 -98z"/>
<path d="M5784 5548 c3 -50 6 -151 6 -225 l0 -133 40 0 40 0 0 95 c0 95 0 95
25 95 25 0 25 0 25 -95 l0 -95 40 0 40 0 0 73 c0 41 -3 142 -7 226 l-6 152
-36 -3 -36 -3 4 -82 3 -83 -31 0 -31 0 0 85 0 85 -41 0 -42 0 7 -92z"/>
<path d="M6285 5616 c-57 -57 -42 -147 40 -233 43 -45 55 -63 55 -89 0 -19 -6
-34 -15 -38 -20 -7 -45 20 -45 50 0 21 -5 24 -35 24 -32 0 -35 -2 -35 -30 0
-42 24 -96 48 -109 40 -21 97 -13 131 18 26 24 31 37 31 74 0 67 -14 95 -81
163 -46 46 -60 67 -57 85 3 27 36 38 49 17 5 -7 9 -23 9 -35 0 -20 5 -23 36
-23 l37 0 -6 47 c-10 90 -105 136 -162 79z"/>
<path d="M6530 5634 c-13 -4 -15 -30 -12 -172 3 -228 16 -266 94 -279 29 -4
41 0 68 24 41 36 45 70 35 277 l-7 156 -35 0 -35 0 2 -167 c1 -93 1 -178 1
-190 -1 -25 -25 -31 -38 -10 -4 6 -10 91 -13 187 -5 166 -6 175 -25 177 -11 0
-27 -1 -35 -3z"/>
<path d="M6775 5630 c-1 -3 1 -102 4 -220 l6 -215 33 -3 32 -3 1 158 c1 169 3
166 34 -39 16 -110 19 -118 40 -118 27 0 28 5 46 184 16 156 27 137 28 -51 l1
-133 36 0 35 0 -6 208 c-4 114 -8 213 -11 220 -3 9 -20 12 -56 10 l-53 -3 -9
-102 c-4 -57 -12 -101 -16 -98 -4 2 -10 35 -14 72 -13 136 -10 131 -73 135
-30 1 -56 1 -58 -2z"/>
<path d="M7120 5503 c0 -65 3 -161 6 -215 7 -96 7 -96 35 -100 l29 -4 2 155 3
156 25 -155 c25 -150 26 -155 49 -155 16 0 25 6 27 20 1 11 7 74 14 140 6 66
14 127 18 135 4 8 9 -55 12 -140 l5 -155 33 -3 32 -3 0 63 c0 35 -3 134 -7
221 l-6 157 -56 0 c-52 0 -57 -2 -58 -22 -13 -200 -23 -223 -37 -83 -11 107
-9 105 -72 105 l-54 0 0 -117z"/>
<path d="M7460 5477 c0 -79 3 -178 6 -220 l7 -77 34 0 35 0 -7 208 c-4 114 -8
213 -10 220 -3 6 -18 12 -35 12 l-30 0 0 -143z"/>
<path d="M7570 5570 c0 -35 3 -40 24 -40 21 0 24 -5 29 -67 4 -38 7 -116 7
-175 l0 -108 36 0 37 0 -4 173 -4 172 23 3 c18 3 22 10 22 43 l0 39 -85 0 -85
0 0 -40z"/>
<path d="M8024 5598 c-28 -13 -44 -49 -44 -98 0 -38 2 -40 30 -40 28 0 30 3
30 35 0 28 4 35 19 35 44 0 34 -82 -18 -147 -38 -47 -61 -112 -61 -169 l0 -44
90 0 90 0 0 35 c0 29 -4 35 -22 37 -34 2 -71 5 -86 7 -15 1 10 51 63 125 30
41 35 57 35 102 0 65 -15 101 -51 120 -32 16 -46 17 -75 2z"/>
<path d="M8232 5603 c-7 -3 -20 -19 -28 -35 -14 -26 -15 -54 -9 -182 9 -188
21 -216 91 -216 74 0 89 44 79 233 -8 151 -19 190 -57 201 -27 7 -58 7 -76 -1z"/>
<path d="M8458 5595 c-27 -15 -48 -64 -48 -112 0 -19 6 -23 30 -23 26 0 30 3
30 29 0 36 27 62 41 40 19 -28 3 -96 -39 -158 -40 -61 -66 -140 -56 -177 5
-17 12 -19 87 -14 80 5 82 6 85 32 3 24 -1 28 -30 32 -18 3 -42 5 -53 3 -31
-3 -28 24 7 77 60 89 68 109 68 168 0 45 -5 62 -22 82 -29 32 -66 40 -100 21z"/>
<path d="M8679 5603 c-22 -5 -49 -66 -49 -108 0 -32 2 -35 30 -35 17 0 29 3
29 8 -1 4 -1 22 0 40 1 25 5 32 21 32 47 0 33 -88 -27 -172 -37 -50 -39 -93
-5 -81 14 5 15 3 5 -7 -9 -10 -15 -10 -26 -1 -12 9 -15 5 -21 -26 -12 -76 -15
-73 80 -73 l85 0 -3 33 c-3 31 -4 32 -56 35 -53 3 -54 4 -47 30 4 15 10 29 14
32 3 3 24 28 44 57 86 119 40 267 -74 236z"/>
<path d="M3502 4432 c-42 -7 -129 -104 -144 -159 -25 -97 -8 -113 117 -113 79
0 94 3 110 20 10 11 24 20 30 20 12 0 41 59 65 133 16 52 -5 77 -67 77 -24 0
-54 6 -66 13 -12 7 -32 12 -45 9z"/>
<path d="M8727 4122 c-3 -4 -31 -17 -63 -28 -36 -12 -67 -31 -86 -53 -26 -30
-30 -40 -25 -78 2 -24 11 -49 19 -56 16 -13 32 -64 43 -135 5 -33 10 -40 20
-32 9 7 16 6 26 -6 11 -14 10 -19 -10 -35 -29 -24 -45 -24 -37 -1 4 10 -2 7
-14 -8 -17 -21 -19 -34 -13 -85 4 -33 7 -71 6 -85 -2 -35 -32 -197 -48 -252
-7 -25 -11 -65 -10 -88 2 -31 0 -40 -10 -36 -7 2 -16 -2 -19 -11 -4 -9 -13
-13 -22 -9 -14 5 -15 4 -5 -8 7 -8 10 -24 6 -36 -7 -22 3 -24 68 -14 33 6 37
10 37 36 0 16 -7 36 -15 45 -22 21 -14 36 22 44 24 5 30 3 26 -7 -3 -8 2 -17
11 -20 21 -8 35 4 18 15 -7 4 -13 34 -14 74 -1 37 -6 67 -10 67 -7 0 -6 130 2
130 3 0 5 24 5 53 0 32 6 61 14 71 23 27 22 64 0 80 -22 15 -20 17 27 42 19
10 26 7 54 -24 27 -29 30 -37 18 -46 -8 -6 -19 -38 -25 -71 -12 -68 -8 -75 45
-75 43 0 45 -1 59 -19 11 -15 12 -15 13 1 0 12 6 15 22 10 14 -3 19 -2 14 6
-4 7 -14 12 -23 12 -8 0 -26 9 -40 20 -14 11 -31 20 -38 20 -7 0 -18 14 -24
30 -14 40 -3 38 44 -10 21 -22 45 -40 52 -40 8 0 25 -11 38 -24 25 -25 35 -24
35 3 0 9 7 29 16 46 8 16 17 57 20 90 4 52 2 65 -17 89 -16 21 -19 30 -10 36
18 11 30 77 26 142 -6 101 -98 228 -165 228 -15 0 -35 3 -43 6 -8 3 -17 1 -20
-4z"/>
<path d="M5910 4077 c-87 -43 -129 -179 -79 -252 l21 -30 -6 37 c-9 48 21 151
50 179 27 25 124 40 124 19 0 -6 5 -10 12 -8 15 5 49 -23 42 -34 -3 -5 0 -7 6
-6 13 4 52 -101 45 -120 -8 -22 5 -35 21 -21 9 7 14 31 14 64 0 43 -6 62 -32
101 -18 26 -45 56 -59 67 -41 29 -105 31 -159 4z"/>
<path d="M2395 4038 c-269 -6 -492 -12 -494 -14 -14 -13 39 -16 331 -15 528 1
858 11 858 27 0 11 -22 14 -102 12 -57 -1 -323 -5 -593 -10z"/>
<path d="M6231 3892 c-1 -7 -6 -10 -11 -7 -21 13 -41 -17 -35 -49 5 -28 5 -29
-8 -13 -16 20 -28 23 -22 5 3 -7 1 -26 -4 -43 l-9 -30 -1 28 c-1 17 -5 26 -12
22 -6 -4 -8 -13 -5 -20 3 -8 -2 -19 -10 -25 -8 -7 -14 -21 -14 -30 0 -29 -11
-50 -23 -43 -5 3 -7 1 -4 -4 7 -10 -72 -29 -100 -24 -7 1 -13 -3 -13 -9 0 -7
-7 -7 -22 1 -21 11 -22 11 -9 -4 9 -12 27 -17 60 -16 50 2 79 13 98 38 7 9 13
12 13 6 0 -5 4 -4 8 3 6 9 15 10 33 3 13 -5 18 -10 11 -10 -8 -1 -12 -11 -11
-23 1 -13 0 -30 -3 -38 -3 -8 -15 -59 -26 -113 -12 -54 -33 -124 -47 -156 -34
-74 -32 -134 4 -139 15 -3 21 0 16 8 -4 6 -13 9 -21 6 -10 -4 -14 3 -14 25 0
17 4 28 8 25 5 -3 18 33 30 81 13 51 29 93 41 105 11 10 25 35 30 56 6 20 18
48 27 61 12 17 14 25 5 30 -18 11 -2 41 22 41 11 0 40 -10 64 -21 24 -12 46
-19 49 -16 3 3 -6 43 -21 89 -42 128 -50 149 -60 141 -4 -5 -5 -3 -2 3 3 6 2
24 -3 40 -4 16 -9 23 -9 16z"/>
<path d="M5507 3724 c-13 -14 -7 -34 11 -34 10 0 23 -5 29 -11 6 -6 56 -10
117 -11 58 0 106 -4 106 -9 0 -5 -4 -9 -10 -9 -5 0 -10 -11 -10 -25 0 -14 5
-25 11 -25 5 0 8 4 4 9 -3 5 -1 12 4 15 5 4 13 1 17 -5 5 -9 11 -7 21 6 7 11
13 13 13 7 0 -7 4 -12 8 -12 4 0 6 16 4 36 -3 26 1 39 14 50 18 13 17 14 -8
10 -16 -3 -28 0 -28 5 0 5 -60 9 -141 9 -91 0 -138 -4 -134 -10 3 -5 2 -10 -4
-10 -5 0 -11 5 -13 11 -2 5 -7 7 -11 3z"/>
<path d="M5697 3303 c5 -51 -18 -101 -35 -76 -4 7 -13 9 -21 3 -8 -4 -20 -6
-28 -3 -8 3 -13 -2 -13 -12 0 -11 5 -15 15 -11 23 8 18 -5 -15 -41 -20 -22
-34 -30 -49 -26 -14 4 -21 1 -21 -10 0 -8 -7 -17 -15 -21 -23 -9 -18 -29 20
-79 19 -25 35 -55 35 -66 0 -34 18 -24 22 12 2 24 8 33 26 35 17 3 22 -2 22
-17 0 -19 6 -21 68 -21 l68 0 -2 50 c-1 35 2 50 11 50 7 0 16 6 18 13 4 9 8 8
16 -3 10 -13 15 -8 12 13 0 4 4 7 9 7 6 0 10 -7 10 -15 0 -21 18 -19 23 3 2 9
7 -11 12 -45 6 -52 11 -63 26 -63 23 0 24 6 14 172 -3 48 13 77 34 63 6 -3 19
-1 28 4 16 9 16 10 -3 11 -12 0 -27 7 -34 15 -11 13 -9 15 13 15 20 0 25 5 23
25 0 14 -6 25 -13 25 -6 0 -13 5 -15 12 -8 23 -28 -4 -28 -38 0 -35 0 -35 -37
-28 -21 4 -49 18 -62 31 -13 13 -36 26 -50 29 -14 3 -38 12 -53 20 -14 8 -28
14 -31 14 -2 0 -2 -21 0 -47z"/>
<path d="M3095 3185 l-57 -65 40 -47 c22 -27 50 -57 62 -68 l22 -20 59 65 c33
35 59 69 59 75 0 11 -111 125 -122 125 -3 0 -32 -29 -63 -65z"/>
<path d="M2497 3212 c-31 -32 -33 -42 -12 -42 18 0 19 -12 3 -28 -17 -17 -28
-15 -28 5 0 14 -7 10 -32 -15 l-33 -32 32 -32 c33 -33 59 -33 30 0 -22 24 -24
50 -2 32 8 -6 34 -13 57 -14 36 -2 44 -6 46 -24 4 -28 8 -28 54 4 44 31 47 42
15 72 -29 28 -46 29 -22 2 10 -11 13 -20 7 -20 -7 0 -12 4 -12 9 0 11 -38 23
-70 22 -18 -1 -21 1 -11 7 11 8 11 11 0 16 -8 3 1 5 18 3 42 -2 43 18 2 50
-13 11 -20 8 -42 -15z"/>
<path d="M2197 3212 c-29 -32 -16 -52 33 -52 40 0 70 -93 35 -106 -8 -4 -15
-17 -15 -30 0 -13 -3 -24 -6 -24 -3 0 -26 16 -50 36 -32 26 -43 42 -39 55 3 9
0 21 -6 25 -9 5 -7 10 5 20 10 7 13 15 7 18 -5 4 -23 -8 -40 -26 l-30 -33 25
-27 c16 -16 32 -24 42 -21 11 5 14 2 9 -9 -3 -10 6 -26 24 -44 l30 -28 63 64
64 65 -24 30 c-21 25 -26 28 -35 15 -9 -13 -10 -12 -5 2 3 11 -7 30 -28 53
-18 19 -36 35 -38 35 -3 0 -12 -8 -21 -18z"/>
<path d="M10255 3212 c-3 -3 -5 -29 -5 -59 l0 -53 45 0 c45 0 54 7 35 26 -15
15 -1 46 19 42 9 -2 17 -13 19 -26 2 -13 10 -22 21 -22 10 0 21 -3 24 -7 11
-11 56 -12 63 -2 3 6 -3 13 -15 16 -13 3 -21 13 -21 26 0 16 -3 18 -12 9 -7
-7 -18 -12 -25 -12 -19 0 -16 37 5 49 14 8 10 11 -23 13 -90 5 -125 5 -130 0z"/>
<path d="M6043 3113 l-63 -4 0 -64 0 -65 60 0 c41 0 60 4 61 13 5 99 7 127 5
125 0 -1 -29 -3 -63 -5z"/>
<path d="M10114 2876 c-3 -9 -3 -27 0 -41 4 -14 7 -28 8 -32 0 -5 7 -21 14
-38 13 -33 23 -289 12 -301 -5 -4 -8 -27 -8 -51 0 -24 -4 -43 -9 -43 -9 0 -21
47 -21 89 -1 21 -3 23 -10 10 -12 -20 -18 -126 -19 -306 -1 -120 -3 -143 -16
-143 -8 0 -22 -18 -31 -40 -9 -22 -19 -40 -23 -40 -4 0 -8 -7 -8 -15 0 -8 5
-15 10 -15 19 0 93 88 121 143 25 50 28 66 27 155 0 57 6 122 15 153 19 73 32
285 16 275 -7 -4 -12 -4 -12 1 -6 96 -13 185 -19 213 -7 37 -37 53 -47 26z"/>
<path d="M10337 2733 c-2 -5 -7 -26 -11 -48 -39 -238 -68 -375 -78 -369 -13 8
-38 -22 -38 -46 0 -34 -50 -202 -70 -237 -11 -18 -15 -33 -9 -33 6 0 7 -6 3
-12 -5 -9 -2 -8 10 1 9 8 15 20 12 27 -3 7 0 14 6 16 7 3 18 20 25 39 l13 34
-4 -36 c-2 -20 -14 -56 -25 -80 -24 -48 -25 -53 -12 -44 22 13 73 143 100 255
22 94 60 310 85 498 6 39 3 52 -7 35z"/>
<path d="M6616 2569 c2 -25 7 -76 9 -115 13 -209 67 -445 106 -470 7 -4 9 0 5
12 -3 11 -10 46 -15 79 -6 33 -12 69 -15 80 -29 123 -37 166 -51 262 -9 62
-23 132 -30 155 l-15 43 6 -46z"/>
</g>
</svg>
